<svg width="31" height="31" viewBox="0 0 31 31" fill="none" xmlns="http://www.w3.org/2000/svg">
<path d="M23.4851 15.2909C23.715 15.6379 23.9448 15.985 24.062 16.5619H20.3706C20.3706 16.4447 20.3706 16.2149 20.4833 15.985C20.6005 15.7551 20.6005 15.6379 20.8304 15.4081C20.9475 15.1782 21.1774 15.061 21.4073 14.9483C21.6372 14.8311 21.9842 14.714 22.3313 14.714C22.791 14.8311 23.2552 14.9483 23.4851 15.2909ZM12.8706 14.4841C13.1005 14.2542 13.3304 13.9072 13.3304 13.4474C13.3304 13.2176 13.3304 12.9832 13.2177 12.7533C13.1005 12.6406 12.9833 12.4063 12.8706 12.4063C12.7534 12.2936 12.5236 12.2936 12.2937 12.1764C12.0638 12.1764 11.8295 12.1764 11.5996 12.1764H9.2919V14.8311H11.8295C12.1765 14.8311 12.5236 14.714 12.8706 14.4841ZM11.9466 16.4447H9.2919V19.5637H11.9466C12.1765 19.5637 12.4064 19.5637 12.6408 19.4465C12.8706 19.4465 13.1005 19.3293 13.2177 19.2167C13.3304 19.0995 13.5602 18.9868 13.6774 18.7524C13.7946 18.5225 13.7946 18.2927 13.7946 18.0628C13.7946 17.4859 13.6774 17.0216 13.3304 16.7918C12.9833 16.5619 12.5236 16.4447 11.9466 16.4447ZM30.9851 6.63703V25.3329C30.9851 28.4474 28.4475 30.985 25.3331 30.985H6.63715C3.52267 30.985 0.985107 28.4474 0.985107 25.3329V6.63703C0.985107 3.52255 3.52267 0.984985 6.63715 0.984985H25.3331C28.4475 0.984985 30.9851 3.52255 30.9851 6.63703ZM19.9064 12.0637H24.5218V10.9099H19.9064V12.0637ZM16.215 18.2927C16.215 17.5986 16.1023 17.0216 15.7552 16.4447C15.4082 15.985 14.9484 15.6379 14.2543 15.4081C14.7141 15.1782 15.1783 14.8311 15.4082 14.4841C15.6381 14.137 15.7552 13.6773 15.7552 13.1004C15.7552 12.5234 15.6381 12.1764 15.5254 11.7167C15.291 11.3696 15.0611 11.0225 14.8313 10.9099C14.4842 10.6755 14.1372 10.5628 13.6774 10.4456C13.1005 10.2158 12.6408 10.2158 12.0638 10.2158H6.75434V21.5243H12.2937C12.7534 21.5243 13.3304 21.4072 13.7946 21.2945C14.2543 21.1773 14.7141 20.9474 15.0611 20.7176C15.4082 20.4832 15.7552 20.1406 15.9851 19.6764C16.1023 19.3293 16.215 18.8696 16.215 18.2927ZM20.3706 17.9456H26.2525C26.2525 17.256 26.2525 16.6791 26.1399 16.1022C26.0227 15.5253 25.7928 14.9483 25.4457 14.6013C25.0987 14.137 24.639 13.7945 24.1792 13.5601C23.6023 13.3302 23.0254 13.1004 22.3313 13.1004C21.7543 13.1004 21.1774 13.2176 20.6005 13.4474C20.1408 13.6773 19.6765 14.0243 19.2168 14.3714C18.8697 14.714 18.5227 15.1782 18.41 15.7551C18.1756 16.332 18.0629 16.909 18.0629 17.4859C18.0629 18.0628 18.1756 18.7524 18.41 19.2167C18.6399 19.7936 18.8697 20.2533 19.2168 20.6004C19.5638 20.9474 20.0236 21.2945 20.4833 21.5243C21.0602 21.7542 21.6372 21.8714 22.2141 21.8714C23.1381 21.8714 23.9448 21.637 24.639 21.1773C25.3331 20.7176 25.7928 20.0234 26.1399 19.0995H24.1792C24.062 19.3293 23.9448 19.5637 23.6023 19.7936C23.2552 20.0234 22.9082 20.1406 22.4484 20.1406C21.8715 20.1406 21.2946 20.0234 20.9475 19.6764C20.6005 19.2167 20.3706 18.6397 20.3706 17.9456Z" fill="white"/>
</svg>
