<svg width="31" height="31" viewBox="0 0 31 31" fill="none" xmlns="http://www.w3.org/2000/svg">
<path fill-rule="evenodd" clip-rule="evenodd" d="M15.439 0.433472C6.94353 0.433472 0.0600586 7.31694 0.0600586 15.8124C0.0600586 22.6057 4.46548 28.3728 10.578 30.4053C11.3489 30.5455 11.6293 30.0749 11.6293 29.6644C11.6293 29.299 11.6143 28.3328 11.6093 27.0512C7.329 27.9773 6.42789 24.9887 6.42789 24.9887C5.72703 23.2115 4.72079 22.7359 4.72079 22.7359C3.32407 21.7847 4.82592 21.8048 4.82592 21.8048C6.36782 21.9149 7.17882 23.3867 7.17882 23.3867C8.5505 25.7396 10.7782 25.0588 11.6543 24.6683C11.7945 23.6721 12.195 22.9962 12.6305 22.6107C9.21632 22.2253 5.62691 20.9036 5.62691 15.0114C5.62691 13.3293 6.22764 11.9576 7.20885 10.8813C7.05366 10.4958 6.52301 8.92892 7.35904 6.81132C7.35904 6.81132 8.65062 6.40081 11.5892 8.38825C12.8157 8.04784 14.1324 7.87763 15.439 7.87262C16.7456 7.87763 18.0622 8.04784 19.2887 8.38825C22.2273 6.40081 23.5139 6.81132 23.5139 6.81132C24.3549 8.92892 23.8293 10.4958 23.6691 10.8813C24.6553 11.9576 25.246 13.3293 25.246 15.0114C25.246 20.9187 21.6516 22.2153 18.2274 22.6007C18.7781 23.0713 19.2687 24.0125 19.2687 25.4442C19.2687 27.5018 19.2537 29.1588 19.2537 29.6644C19.2537 30.0749 19.529 30.5555 20.31 30.4053C26.4175 28.3678 30.8179 22.6057 30.8179 15.8124C30.8179 7.31694 23.9344 0.433472 15.439 0.433472Z" fill="white"/>
</svg>
