<svg width="30" height="30" viewBox="0 0 30 30" fill="none" xmlns="http://www.w3.org/2000/svg">
<g clip-path="url(#clip0_201_97)">
<path d="M30 30H0V0H30V30ZM18.7675 11.2425V20.4C18.7675 20.6475 18.7675 20.6925 18.6088 20.8525L16.9813 22.4325V22.77H24.8813V22.4325L23.31 20.89C23.1963 20.8025 23.125 20.6675 23.125 20.515C23.125 20.4875 23.1275 20.4612 23.1312 20.435V20.4375V9.1C23.1275 9.07625 23.125 9.05 23.125 9.0225C23.125 8.87125 23.1975 8.73625 23.31 8.65L23.3113 8.64875L24.9187 7.10625V6.76875H19.3488L15.3788 16.6737L10.8675 6.76875H5.02375V7.1075L6.90125 9.37375C7.06 9.5175 7.16 9.725 7.16 9.95625C7.16 9.98375 7.15875 10.01 7.15625 10.0363V10.0325V18.94C7.165 18.9913 7.17 19.05 7.17 19.11C7.17 19.3875 7.06 19.6388 6.88125 19.8238L4.76875 22.3913V22.7288H10.7687V22.3913L8.655 19.8238C8.46875 19.6313 8.35375 19.37 8.35375 19.08C8.35375 19.03 8.3575 18.9813 8.36375 18.9338V18.9388V11.2388L13.6325 22.7325H14.245L18.7675 11.2425Z" fill="#E8EAED"/>
</g>
<defs>
<clipPath id="clip0_201_97">
<rect width="30" height="30" fill="white"/>
</clipPath>
</defs>
</svg>
